<svg width="78" height="50" viewBox="0 0 78 50" fill="none" xmlns="http://www.w3.org/2000/svg">
  <g id="logo" clip-path="url(#clip0_169_81)">
    <path id="Vector"
      d="M53.5595 3.72676C53.997 3.72676 54.4196 3.793 54.8268 3.92546C55.2491 4.04464 55.6186 4.22348 55.9358 4.4619C56.2674 4.68708 56.5316 4.97187 56.7274 5.31625C56.9236 5.64741 57.0215 6.02491 57.0215 6.44876C57.0215 7.27003 56.72 8.20387 56.1165 9.25028C55.5133 10.2967 54.7289 11.5219 53.7633 12.926C52.7223 14.4228 51.7419 15.9195 50.8215 17.4164C49.9016 18.9 49.0415 20.3371 48.2422 21.7278C47.4577 23.1054 46.7337 24.4102 46.07 25.642C45.4214 26.8606 44.8556 27.9532 44.3729 28.9204C44.9761 28.9867 45.5795 29.0396 46.1828 29.0794C46.7865 29.1191 47.3295 29.1323 47.8123 29.1189L47.8573 30.1523C47.7521 30.1523 47.3522 30.1523 46.6584 30.1523C45.9794 30.139 45.0515 30.0596 43.8751 29.9138C43.4073 30.8675 43.0454 31.6093 42.7887 32.139C42.5476 32.6689 42.4267 32.9472 42.4267 32.9734L39.7341 32.2384L41.0919 29.5164C40.081 29.3178 39.0177 29.0859 37.9013 28.8211C36.7853 28.5561 35.6461 28.2583 34.4844 27.927C33.3381 27.5825 32.1914 27.1984 31.045 26.7746C29.8985 26.3507 28.7975 25.887 27.7415 25.3839C26.7608 26.3773 25.6975 27.3572 24.551 28.3244C23.4045 29.2779 22.175 30.139 20.8627 30.9072C19.5502 31.6622 18.1548 32.2714 16.6765 32.7351C15.2133 33.2119 13.6671 33.4505 12.0379 33.4505C10.5897 33.4505 9.14157 33.2585 7.69339 32.8743C6.26031 32.5034 4.97054 31.9603 3.82408 31.2451C2.69269 30.5167 1.77249 29.6357 1.0635 28.6025C0.354486 27.5562 0 26.3707 0 25.046C0 23.9994 0.226271 23.079 0.678816 22.2842C1.1163 21.4893 1.71969 20.8271 2.48903 20.2974C3.27347 19.7674 4.18612 19.3701 5.22698 19.1052C6.28295 18.827 7.41433 18.688 8.62113 18.688C9.54134 18.688 10.4917 18.7673 11.4722 18.9263C12.4678 19.0853 13.4333 19.3503 14.3686 19.7212C15.3038 20.092 16.1864 20.5822 17.0159 21.1915C17.8458 21.8007 18.5547 22.5558 19.143 23.4565L18.1473 24.0128C18.1322 23.9862 18.0417 23.8869 17.8759 23.7146C17.725 23.5294 17.4913 23.3107 17.1744 23.0592C16.8727 22.7941 16.4806 22.5161 15.9977 22.2245C15.5151 21.9331 14.9343 21.6684 14.2555 21.43C13.5917 21.1782 12.8148 20.9728 11.9248 20.8139C11.0498 20.6418 10.0542 20.5555 8.9379 20.5555C7.80653 20.5555 6.81847 20.7279 5.9737 21.0722C5.12892 21.4034 4.41994 21.834 3.84668 22.3637C3.28855 22.8802 2.86616 23.4632 2.57955 24.1121C2.30802 24.7612 2.17225 25.3904 2.17225 25.9996C2.17225 26.7149 2.31556 27.3707 2.60217 27.9667C2.8888 28.5495 3.27348 29.0794 3.7562 29.5562C4.254 30.0331 4.82725 30.4504 5.4759 30.808C6.13963 31.1521 6.83356 31.4437 7.55764 31.6822C8.29679 31.9207 9.04352 32.0995 9.79775 32.2185C10.5671 32.338 11.3138 32.3974 12.0379 32.3974C13.5313 32.3974 14.9644 32.1856 16.3371 31.7617C17.7101 31.3246 19.0073 30.755 20.2291 30.053C21.451 29.3377 22.5974 28.5296 23.6686 27.6288C24.7545 26.7282 25.7577 25.8075 26.6781 24.8674C25.6523 24.3242 24.7019 23.7412 23.8268 23.1186C22.9672 22.4829 22.2204 21.8073 21.5868 21.092C20.9531 20.3636 20.4553 19.5887 20.0933 18.7673C19.7464 17.9329 19.5728 17.0521 19.5728 16.1248C19.5728 15.3566 19.7315 14.6347 20.048 13.9591C20.3799 13.2837 20.8248 12.6942 21.3831 12.1909C21.9562 11.6742 22.6278 11.2703 23.397 10.9788C24.1813 10.6743 25.0187 10.5218 25.9087 10.5218C26.9044 10.5218 27.847 10.6611 28.737 10.9391C29.6272 11.204 30.472 11.575 31.2715 12.0518C32.0709 12.5153 32.8177 13.0717 33.5115 13.7208C34.2206 14.3698 34.8843 15.0718 35.5027 15.8269C37.1923 14.1711 38.8742 12.6147 40.5487 11.1577C42.2383 9.6874 43.8598 8.40256 45.4137 7.30313C46.9676 6.20373 48.4306 5.33613 49.8034 4.70032C51.1912 4.05127 52.4434 3.72676 53.5595 3.72676ZM36.2043 16.7407C36.9134 17.6944 37.5618 18.6814 38.15 19.7012C38.7386 20.7213 39.2667 21.7212 39.7341 22.7014C40.2169 23.6815 40.6392 24.6154 41.0014 25.5028C41.3787 26.3773 41.703 27.152 41.9741 27.8277C43.7392 24.4498 45.6249 21.1384 47.6312 17.8933C49.6376 14.648 51.8928 11.4425 54.3968 8.27671C54.8044 7.74689 55.0906 7.30978 55.2569 6.96536C55.438 6.60774 55.5281 6.30308 55.5281 6.05141C55.5281 5.62754 55.3244 5.30964 54.9173 5.09771C54.5101 4.87253 54.0423 4.75992 53.5145 4.75992C51.84 4.75992 49.5547 5.76662 46.6584 7.78002C43.7769 9.78011 40.2922 12.767 36.2043 16.7407ZM21.6321 17.0786C21.6321 17.7807 21.783 18.4495 22.0847 19.0853C22.3862 19.7078 22.8011 20.3106 23.3292 20.8934C23.857 21.4631 24.4831 22.0061 25.2072 22.5227C25.9313 23.0259 26.7158 23.5027 27.5604 23.9531C28.692 22.7478 29.8458 21.5357 31.0224 20.3172C32.1992 19.0985 33.3908 17.8933 34.5976 16.7011C34.0696 16.0917 33.519 15.5288 32.946 15.0122C32.3876 14.4824 31.7995 14.0255 31.1809 13.6413C30.5626 13.2571 29.9214 12.9591 29.2575 12.7472C28.5938 12.5352 27.9075 12.4293 27.1984 12.4293C26.399 12.4293 25.6598 12.5485 24.9808 12.7869C24.302 13.0253 23.7138 13.3565 23.2161 13.7802C22.7182 14.191 22.3261 14.6812 22.0393 15.2507C21.7678 15.8069 21.6321 16.4163 21.6321 17.0786ZM40.9788 28.4039C40.7673 27.8077 40.4807 27.0856 40.119 26.2381C39.7721 25.3904 39.357 24.4832 38.8742 23.5161C38.4068 22.536 37.871 21.5357 37.2676 20.5159C36.6796 19.4958 36.0307 18.5224 35.3218 17.5952C34.2809 18.6284 33.2023 19.7146 32.0862 20.8538C30.9698 21.9928 29.8083 23.2049 28.6015 24.4897C29.6573 25.0062 30.7588 25.4766 31.9051 25.9004C33.0664 26.311 34.1904 26.6818 35.2766 27.0131C36.3776 27.331 37.4185 27.609 38.399 27.8475C39.3948 28.086 40.2546 28.2712 40.9788 28.4039Z"
      fill="currentColor" />
    <path id="Vector_2"
      d="M68.9913 0.721797C69.803 1.18077 70.5444 1.79686 71.2155 2.57011C71.8867 3.34335 72.4508 4.23746 72.9084 5.2525C73.3664 6.26752 73.6985 7.39273 73.9049 8.62802C74.1196 9.85224 74.1746 11.1595 74.0702 12.5498C73.9611 13.9217 73.6815 15.355 73.2316 16.8493C72.7814 18.3437 72.125 19.8629 71.2614 21.4072C72.0592 22.693 72.8338 23.9976 73.5857 25.3207C74.3253 26.6369 74.9852 27.9631 75.566 29.2996C76.1343 30.6293 76.5934 31.9603 76.9439 33.2929C77.2899 34.607 77.4705 35.9142 77.4859 37.2148C77.509 38.504 77.327 39.7799 76.9399 41.0418C76.5735 42.2997 75.9535 43.5245 75.0796 44.7162C74.361 45.6964 73.4977 46.5551 72.4901 47.2932C71.5033 48.027 70.4378 48.5746 69.2935 48.9359C68.1702 49.2936 67.0095 49.4328 65.8115 49.3541C64.6135 49.2751 63.4435 48.9129 62.3019 48.2675C61.0717 47.5719 60.1471 46.7655 59.5279 45.8484C58.9005 44.9423 58.5192 43.9941 58.3843 43.004C58.2571 42.0026 58.3502 41.0074 58.6628 40.0183C58.9629 39.0221 59.4272 38.0952 60.0561 37.2378C60.5378 36.5807 61.0877 35.9777 61.7053 35.4291C62.3184 34.8619 62.9707 34.364 63.6618 33.9359C64.361 33.496 65.0783 33.1295 65.8135 32.8365C66.557 32.5322 67.2937 32.3105 68.0235 32.172L68.2647 33.0171C67.777 33.1195 67.2649 33.2793 66.7293 33.496C66.2016 33.702 65.6647 33.9813 65.1189 34.3342C64.5602 34.6803 64.0197 35.099 63.4971 35.5913C62.9621 36.0767 62.4575 36.642 61.9839 37.288C61.4365 38.0341 61.0516 38.8404 60.8288 39.7072C60.5935 40.5666 60.5483 41.4233 60.6934 42.2772C60.8256 43.1242 61.1628 43.937 61.7042 44.7158C62.2326 45.4872 62.9982 46.1562 64.0001 46.723C64.8118 47.1817 65.6749 47.4726 66.5894 47.5959C67.4992 47.7008 68.3959 47.6407 69.2787 47.4152C70.1824 47.1856 71.0376 46.8026 71.8439 46.2662C72.6583 45.718 73.3799 45.0155 74.0086 44.158C74.7271 43.1779 75.2238 42.1587 75.4975 41.1003C75.7918 40.0381 75.9021 38.9582 75.8276 37.8607C75.7743 36.7592 75.5679 35.6342 75.2078 34.4854C74.8563 33.3256 74.4001 32.1616 73.8395 30.9938C73.2738 29.8075 72.6373 28.6207 71.9295 27.4328C71.2217 26.2449 70.4846 25.048 69.7177 23.8428L69.3872 24.2937C68.0149 26.1646 66.5622 27.7298 65.0284 28.9895C63.4901 30.2311 61.9524 31.1652 60.4154 31.7931C58.8868 32.4095 57.4069 32.7152 55.9759 32.7094C54.5399 32.6853 53.2325 32.3399 52.053 31.6728C50.8734 31.006 49.9807 30.2174 49.3739 29.3074C48.7675 28.3976 48.413 27.425 48.3108 26.3903C48.2082 25.3557 48.3395 24.2954 48.705 23.2102C49.0574 22.1177 49.6096 21.0592 50.361 20.0346C51.006 19.1549 51.6808 18.3939 52.3845 17.7523C53.0759 17.1033 53.7605 16.5609 54.4389 16.1252C55.1128 15.6712 55.7587 15.3039 56.3774 15.0235C57.0038 14.7318 57.5645 14.5054 58.0595 14.3441C58.5547 14.183 58.9691 14.0707 59.3026 14.0072C59.636 13.9437 59.855 13.902 59.9595 13.8821L60.1137 14.7728C60.0927 14.7768 59.8158 14.8488 59.2826 14.9884C58.7369 15.1209 58.0718 15.3672 57.2874 15.7273C56.4907 16.0801 55.6458 16.5714 54.7534 17.2012C53.8483 17.8236 53.0363 18.6249 52.3177 19.6049C51.5908 20.5962 51.0796 21.5991 50.7841 22.6135C50.4969 23.6171 50.4181 24.5806 50.5478 25.5047C50.665 26.4218 50.9838 27.2714 51.5039 28.054C52.033 28.8257 52.7537 29.4695 53.6669 29.986C54.7452 30.5956 55.9197 30.8895 57.1916 30.8682C58.4506 30.8395 59.7361 30.5424 61.0479 29.9765C62.3555 29.3925 63.6483 28.5716 64.9264 27.5139C66.1999 26.438 67.3838 25.1538 68.478 23.6616L69.0661 22.8596C68.2351 21.5705 67.4128 20.2943 66.599 19.0308C65.7809 17.7488 65.0341 16.4918 64.3592 15.2592C63.6715 14.0195 63.0822 12.8044 62.5921 11.6133C62.1017 10.4224 61.7732 9.26778 61.6066 8.14947C61.4273 7.02401 61.4429 5.93806 61.6544 4.89161C61.853 3.83805 62.2992 2.83794 62.9933 1.8913C63.2794 1.50152 63.6244 1.15317 64.0289 0.846219C64.4289 0.520994 64.8848 0.29049 65.3971 0.15474C65.905 0.000695159 66.4626 -0.0383424 67.071 0.03766C67.6664 0.106514 68.3064 0.334538 68.9913 0.721797ZM64.2779 2.12139C63.7636 2.82298 63.4508 3.59159 63.3405 4.42716C63.2304 5.26275 63.2861 6.15297 63.5084 7.09782C63.7178 8.03547 64.0598 9.02458 64.5349 10.0651C64.997 11.0984 65.5524 12.1764 66.2 13.299C66.8437 14.4034 67.5464 15.5491 68.3087 16.7362C69.0582 17.9161 69.8185 19.1181 70.5896 20.3418C71.4359 18.772 72.0506 17.2606 72.4344 15.8078C72.8179 14.3547 73.0278 12.9924 73.0633 11.7205C73.0862 10.4417 72.9686 9.25653 72.7102 8.16524C72.4519 7.07394 72.108 6.09956 71.6779 5.24214C71.2484 4.38468 70.7645 3.66212 70.2266 3.07443C69.6842 2.4684 69.1403 2.01121 68.5951 1.70282C68.189 1.47337 67.7862 1.30077 67.3868 1.18512C66.9954 1.05832 66.6157 1.00115 66.2478 1.01366C65.8794 1.02613 65.5319 1.121 65.2044 1.29829C64.8646 1.46838 64.5555 1.74273 64.2779 2.12139Z"
      fill="currentColor" />
    <path id="Vector_3"
      d="M53.3455 49.4585C52.3888 49.2704 51.4369 49.0018 50.4901 48.6527C49.5549 48.3197 48.6178 47.9319 47.6795 47.4895C46.7378 47.0601 45.8026 46.6046 44.8744 46.1236C43.9458 45.6423 43.0303 45.1707 42.1279 44.708C40.8069 45.1001 39.4688 45.3458 38.1139 45.4462C36.7557 45.5592 35.3772 45.4783 33.9787 45.2035C32.7864 44.9688 31.9217 44.6021 31.384 44.1029C30.8465 43.6035 30.6571 43.0435 30.8153 42.4233C31.0229 41.6089 31.6979 41.0834 32.8405 40.8462C33.9829 40.6095 35.5993 40.6965 37.6895 41.1075C38.6021 41.2869 39.5078 41.5258 40.4051 41.8244C41.3029 42.1232 42.2071 42.457 43.1181 42.826C44.2265 42.2972 45.3143 41.6696 46.3807 40.9428C47.4472 40.2158 48.5081 39.4199 49.5632 38.5551C48.9433 38.501 48.3191 38.4325 47.691 38.3498C47.0663 38.2543 46.4372 38.1441 45.8042 38.0196C43.493 37.565 41.4933 36.921 39.8044 36.0866C38.1191 35.2398 36.7578 34.273 35.7206 33.1868C34.6869 32.0879 33.9841 30.9046 33.6115 29.6367C33.2571 28.3589 33.2479 27.0609 33.5843 25.7425C33.9797 24.1913 34.6694 22.8813 35.6531 21.8122C36.6363 20.7433 37.8209 19.9174 39.2061 19.3347C40.6098 18.7418 42.168 18.3897 43.881 18.2785C45.5978 18.1545 47.3761 18.2734 49.2163 18.6351C50.379 18.8638 51.4192 19.1497 52.3366 19.4928C53.2538 19.836 54.0355 20.1661 54.681 20.483C55.3416 20.8029 55.8492 21.0859 56.2036 21.3321C56.5583 21.5782 56.7559 21.7121 56.7971 21.7339L56.0004 22.4933C55.9859 22.4907 55.8198 22.3832 55.5026 22.1717C55.1891 21.947 54.7444 21.6902 54.169 21.4004C53.5936 21.111 52.8971 20.8111 52.0796 20.5011C51.2622 20.1911 50.3599 19.9391 49.3738 19.7452C47.6366 19.4037 46.0187 19.3233 44.5197 19.5035C43.0386 19.6739 41.7207 20.0529 40.5662 20.6403C39.426 21.2305 38.4654 21.9986 37.6831 22.9442C36.9188 23.88 36.3867 24.936 36.0869 26.1122C35.7506 27.4307 35.7952 28.6815 36.2199 29.8646C36.6484 31.0344 37.3516 32.0957 38.3301 33.0482C39.3116 33.9879 40.5202 34.7954 41.9554 35.4712C43.4055 36.15 44.9772 36.6559 46.6699 36.9885C47.3621 37.1246 48.0441 37.2383 48.7164 37.3298C49.4035 37.4241 50.0897 37.4912 50.7752 37.5306C52.1861 36.3016 53.5735 35.0133 54.9372 33.666C56.3158 32.3216 57.6784 31.0086 59.0259 29.7259C60.3731 28.4433 61.7082 27.2395 63.0302 26.1151C64.3564 24.9778 65.6757 24.0155 66.9893 23.2286C68.3179 22.4445 69.645 21.8773 70.9712 21.5271C72.3002 21.1641 73.6422 21.1157 74.9964 21.382C75.5264 21.4861 75.9997 21.6606 76.4166 21.9055C76.8367 22.1373 77.1763 22.4417 77.4358 22.8183C77.6987 23.1821 77.8662 23.6157 77.9388 24.1185C78.0118 24.6215 77.969 25.1833 77.8107 25.8037C77.5537 26.8118 77.0612 27.8347 76.3327 28.8728C75.6076 29.8976 74.6824 30.8897 73.5567 31.8493C72.4338 32.7959 71.1308 33.6935 69.6469 34.5421C68.1661 35.3776 66.5433 36.1038 64.7786 36.7204C63.0137 37.3373 61.1261 37.8283 59.1164 38.1932C57.1095 38.5452 55.0246 38.7193 52.8617 38.7145C51.5901 39.6999 50.3058 40.6149 49.0083 41.4593C47.7142 42.2908 46.3862 43.0136 45.0237 43.6281C46.0763 44.1067 47.1022 44.6002 48.1009 45.1088C49.1031 45.6044 50.0528 46.0627 50.9508 46.4833C51.8595 46.9199 52.7064 47.2966 53.4911 47.6139C54.2727 47.9438 54.9797 48.1712 55.6129 48.2957C56.5548 48.4808 57.4965 48.5165 58.4376 48.4029C59.3935 48.2922 60.3977 47.9605 61.451 47.4074L62.1981 48.2057C62.1801 48.2157 62.0775 48.2838 61.891 48.4099C61.7074 48.5233 61.4421 48.6543 61.0947 48.8032C60.7445 48.9649 60.3188 49.1191 59.818 49.2648C59.3138 49.4238 58.7331 49.5471 58.077 49.6352C57.4356 49.7261 56.7155 49.7612 55.9172 49.74C55.1299 49.7346 54.273 49.6407 53.3455 49.4585ZM74.8127 22.4658C73.9886 22.3035 73.1054 22.4015 72.1639 22.7595C71.2225 23.1174 70.226 23.6612 69.1743 24.3909C68.1258 25.108 67.0213 25.9834 65.8611 27.0178C64.7187 28.042 63.5256 29.1445 62.2817 30.325C61.0411 31.4928 59.7518 32.6988 58.4144 33.9426C57.077 35.1862 55.7022 36.3954 54.2898 37.57C56.1651 37.4908 57.9847 37.2648 59.7493 36.8923C61.5285 36.5227 63.204 36.0444 64.7758 35.4578C66.3624 34.8736 67.8238 34.2041 69.1605 33.4488C70.5151 32.6833 71.7053 31.8654 72.7307 30.9946C73.7714 30.1271 74.6245 29.236 75.2907 28.3218C75.96 27.3945 76.4115 26.4718 76.6454 25.5542C76.7673 25.0759 76.8033 24.6624 76.7533 24.313C76.7065 23.9509 76.5916 23.6433 76.4088 23.3901C76.2407 23.1401 76.0137 22.9394 75.7276 22.7879C75.4562 22.6396 75.1513 22.5322 74.8127 22.4658ZM34.1033 44.1691C35.1927 44.3831 36.2576 44.4503 37.2985 44.3695C38.3358 44.302 39.3703 44.1254 40.4018 43.8396C39.4929 43.4028 38.6016 43.0173 37.7284 42.6827C36.8703 42.3513 36.0212 42.1027 35.1821 41.9379C34.1813 41.7413 33.4122 41.7257 32.8753 41.8917C32.3531 42.0605 32.0493 42.3127 31.9634 42.649C31.9371 42.7523 31.9387 42.8681 31.9677 42.9959C32.0084 43.1397 32.1039 43.2807 32.2541 43.4188C32.4045 43.5568 32.626 43.6886 32.9186 43.814C33.2076 43.9524 33.6029 44.0705 34.1033 44.1691Z"
      fill="currentColor" />
  </g>
  <defs></defs>
</svg>
